<svg id="Capa_1" data-name="Capa 1" xmlns="http://www.w3.org/2000/svg" viewBox="0 0 41.82 54.76"><defs><style>.cls-1{fill:#0a0909;}</style></defs><title>iron-throne-icon</title><ellipse class="cls-1" cx="9.62" cy="37.03" rx="2.96" ry="4.4"/><ellipse class="cls-1" cx="32.04" cy="36.74" rx="2.96" ry="4.4"/><path class="cls-1" d="M33.13,85.3c-1.05-1.25,5.1-11.6,5.33-13a1,1,0,0,1,.25-0.54,1.16,1.16,0,0,1,1.08-.29,1.68,1.68,0,0,1,.75.54c0.18,0.16,1.38,1.27,2.33,1a3.33,3.33,0,0,1,1-.37,1,1,0,0,1,.71.21,1.63,1.63,0,0,1,.13,1.42,19.87,19.87,0,0,0,0,3.29c-0.06,2.08-.09,3.4,0,5s0.24,2.05-.08,2.5c-0.48.67-1.35,0.67-4,.71C37,85.89,33.71,86,33.71,86Z" transform="translate(-33 -31.21)"/><path class="cls-1" d="M74.7,85.3c1.05-1.25-5.1-11.6-5.33-13a1,1,0,0,0-.25-0.54A1.16,1.16,0,0,0,68,71.47a1.68,1.68,0,0,0-.75.54c-0.18.16-1.38,1.27-2.33,1a3.33,3.33,0,0,0-1-.37,1,1,0,0,0-.71.21,1.63,1.63,0,0,0-.12,1.42,19.87,19.87,0,0,1,0,3.29c0.06,2.08.09,3.4,0,5s-0.24,2.05.08,2.5c0.48,0.67,1.35.67,4,.71,3.54,0.05,6.87.13,6.88,0.13Z" transform="translate(-33 -31.21)"/><rect class="cls-1" x="12.1" y="39.84" width="17.8" height="13.08" rx="1" ry="1"/><ellipse class="cls-1" cx="20.91" cy="41.48" rx="8.98" ry="5.97"/><path class="cls-1" d="M41.56,63.3a1.23,1.23,0,0,0,0-.6,6.28,6.28,0,0,0-.31-1c-0.25-.57-0.39-1.18-0.6-1.77,0,0-1.37-3.78-2.55-8.35a4.47,4.47,0,0,1-.11-0.75c0-.31-0.08-1.26.26-1.4s1.11,0.86,1.25,1.05a5.94,5.94,0,0,1,.92,1.88c0.78,3,2.24,7.11,2.17,7.13s-1-5.07-2.12-8.67c-0.43-1.38-.19-2.89-0.54-4.29a0.52,0.52,0,0,1,0-.46,1.26,1.26,0,0,1,1,.17c1.82,0.86,2.39,9.38,2.71,9.38a7.25,7.25,0,0,0,.21-3.17c-0.15-2-.57-2.5-1-5-0.32-1.67-.84-4.42,0-4.87a1.08,1.08,0,0,1,1.08.13,0.88,0.88,0,0,1,.25.54c0.62,4.57,1.76,9.06,2.42,13.63,0,0,.07.5,0.08,0.5s-0.07-8.75-1.46-13.58A22.16,22.16,0,0,1,45,38.84a1.08,1.08,0,0,1,.29-0.92,0.82,0.82,0,0,1,.67.29,4.54,4.54,0,0,1,1,3c0.21,2,.29.76,0.63,3.75a69.1,69.1,0,0,0,1,8.38,1.78,1.78,0,0,0,.25.83c0.41,0-.48-14.67-0.79-16.33a2.8,2.8,0,0,1,0-.5c0-.64.21-1.66,0.71-1.75a1.19,1.19,0,0,1,.88.58,1.78,1.78,0,0,1,.29.92c0.1,2.14.95,13.37,1,13.38a19.31,19.31,0,0,0,.25-3.17c0.11-3.48,0-9.09,0-10.88,0,0,0-.23,0-0.62,0.1-1.07.16-1.7,0.58-2a0.79,0.79,0,0,1,.83,0,1.25,1.25,0,0,1,.25.92A7.24,7.24,0,0,1,53.13,36a157.66,157.66,0,0,1,.13,16.29,3.37,3.37,0,0,1,0,.5c-0.11,0,.7-18.31.58-19.83a2.59,2.59,0,0,1,0-.62,1.48,1.48,0,0,1,.63-1.13,0.92,0.92,0,0,1,.71.42,2.68,2.68,0,0,1,.54,1.75C55.63,37.37,56.2,52,55.65,52c-0.18,0,.35-4.13.35-15.62a3.31,3.31,0,0,1,0-1.54,1.57,1.57,0,0,1,1-1.21c0.54,0,.85,1.53,1,2.08,0.91,4.5.39,16.08,0.08,16s1.84-13.16,1.42-15.33a1.07,1.07,0,0,1,.13-0.92,1,1,0,0,1,1.25.17,0.77,0.77,0,0,1,.08.54A16.37,16.37,0,0,0,61,38.3c0,1.7-.92,15.79-0.87,15.79s2.34-12.63,2.25-14.33a2.12,2.12,0,0,1,.21-1,1.28,1.28,0,0,1,.88-0.79,1.34,1.34,0,0,1,.92,1.13,4,4,0,0,1,0,1.17,12,12,0,0,0,0,1.33c0.06,3.17-1.62,11.83-1.62,11.83a6.49,6.49,0,0,0-.21,1.38,15,15,0,0,0,1.13-3.54c0.43-1.91.3-2.45,0.79-5.33,0.44-2.54.79-3.57,1.29-3.63a1,1,0,0,1,.79.42,0.94,0.94,0,0,1,.13.58c-0.07.94-1.46,12.43-1.5,12.42s2.68-7.84,2.71-9a0.81,0.81,0,0,1,.17-0.5,0.88,0.88,0,0,1,1-.21,1.18,1.18,0,0,1,.29,1.17c-0.14,1.91-2.1,12.68-2.71,12.5s2.44-7.7,3-9.08c0.18-.42.55-1.21,1-1.21a0.9,0.9,0,0,1,.63.42,1.48,1.48,0,0,1,.13,1.13c-0.54,2.49-4,12.13-4,13.29a0.52,0.52,0,0,1-.1.35,2.15,2.15,0,0,1-.4-0.67c-0.5-.74-2.05-0.92-3.12-0.37a3.16,3.16,0,0,0-1.4,1.65c-0.93,2.12.06,4.51-.33,4.63a0.36,0.36,0,0,1-.27-0.17c-1-1.25-4.26-2.85-5.31-3.25-2.19-.83-4.42,0-6,0.58A12.52,12.52,0,0,0,46,69.68a0.6,0.6,0,0,1-.27.25,2.7,2.7,0,0,1,.23-1c0.32-1,.47-3.27-0.81-4.44a3.89,3.89,0,0,0-3.42-.75,0.37,0.37,0,0,1-.27.06A1.45,1.45,0,0,1,41.56,63.3Z" transform="translate(-33 -31.21)"/></svg>